<mxfile host="app.diagrams.net" modified="2023-07-07T10:00:28.328Z" agent="Mozilla/5.0 (Windows NT 10.0; Win64; x64) AppleWebKit/537.36 (KHTML, like Gecko) Chrome/114.0.0.0 Safari/537.36 Edg/114.0.1823.67" etag="so4c_HpcaMXOFKmx4LMv" version="21.6.1" type="github">
  <diagram name="Page-1" id="jodfzSSgS3npDsEol986">
    <mxGraphModel dx="987" dy="495" grid="1" gridSize="10" guides="1" tooltips="1" connect="1" arrows="1" fold="1" page="1" pageScale="1" pageWidth="850" pageHeight="1100" math="0" shadow="0">
      <root>
        <mxCell id="0" />
        <mxCell id="1" parent="0" />
        <mxCell id="EhaO9jc-MDTNK2BKhwBv-1" value="" style="edgeStyle=orthogonalEdgeStyle;rounded=0;orthogonalLoop=1;jettySize=auto;html=1;" edge="1" parent="1" source="EhaO9jc-MDTNK2BKhwBv-2">
          <mxGeometry relative="1" as="geometry">
            <mxPoint x="340" y="360" as="targetPoint" />
          </mxGeometry>
        </mxCell>
        <mxCell id="EhaO9jc-MDTNK2BKhwBv-2" value="" style="sketch=0;points=[[0,0,0],[0.25,0,0],[0.5,0,0],[0.75,0,0],[1,0,0],[0,1,0],[0.25,1,0],[0.5,1,0],[0.75,1,0],[1,1,0],[0,0.25,0],[0,0.5,0],[0,0.75,0],[1,0.25,0],[1,0.5,0],[1,0.75,0]];outlineConnect=0;fontColor=#232F3E;gradientColor=#4AB29A;gradientDirection=north;fillColor=#116D5B;strokeColor=#ffffff;dashed=0;verticalLabelPosition=bottom;verticalAlign=top;align=center;html=1;fontSize=12;fontStyle=0;aspect=fixed;shape=mxgraph.aws4.resourceIcon;resIcon=mxgraph.aws4.personalize;" vertex="1" parent="1">
          <mxGeometry x="190" y="321" width="78" height="78" as="geometry" />
        </mxCell>
        <mxCell id="EhaO9jc-MDTNK2BKhwBv-3" value="" style="edgeStyle=orthogonalEdgeStyle;rounded=0;orthogonalLoop=1;jettySize=auto;html=1;" edge="1" parent="1" source="EhaO9jc-MDTNK2BKhwBv-4">
          <mxGeometry relative="1" as="geometry">
            <mxPoint x="500" y="361" as="targetPoint" />
          </mxGeometry>
        </mxCell>
        <mxCell id="EhaO9jc-MDTNK2BKhwBv-4" value="" style="outlineConnect=0;dashed=0;verticalLabelPosition=bottom;verticalAlign=top;align=center;html=1;shape=mxgraph.aws3.lambda_function;fillColor=#F58534;gradientColor=none;" vertex="1" parent="1">
          <mxGeometry x="340" y="321" width="74.5" height="80" as="geometry" />
        </mxCell>
        <mxCell id="EhaO9jc-MDTNK2BKhwBv-6" value="Actor" style="shape=umlActor;verticalLabelPosition=bottom;verticalAlign=top;html=1;outlineConnect=0;" vertex="1" parent="1">
          <mxGeometry x="680" y="320" width="30" height="60" as="geometry" />
        </mxCell>
        <mxCell id="EhaO9jc-MDTNK2BKhwBv-7" style="edgeStyle=orthogonalEdgeStyle;rounded=0;orthogonalLoop=1;jettySize=auto;html=1;exitX=1;exitY=0.3333333333333333;exitDx=0;exitDy=0;exitPerimeter=0;entryX=0.5;entryY=0.5;entryDx=0;entryDy=0;entryPerimeter=0;" edge="1" parent="1" source="EhaO9jc-MDTNK2BKhwBv-6" target="EhaO9jc-MDTNK2BKhwBv-6">
          <mxGeometry relative="1" as="geometry" />
        </mxCell>
        <mxCell id="EhaO9jc-MDTNK2BKhwBv-8" value="&lt;font style=&quot;font-size: 14px;&quot;&gt;Personalize&lt;/font&gt;" style="text;html=1;strokeColor=none;fillColor=none;align=center;verticalAlign=middle;whiteSpace=wrap;rounded=0;" vertex="1" parent="1">
          <mxGeometry x="199" y="390" width="60" height="40" as="geometry" />
        </mxCell>
        <mxCell id="EhaO9jc-MDTNK2BKhwBv-9" value="" style="edgeStyle=orthogonalEdgeStyle;rounded=0;orthogonalLoop=1;jettySize=auto;html=1;" edge="1" parent="1">
          <mxGeometry relative="1" as="geometry">
            <mxPoint x="580" y="357" as="sourcePoint" />
            <mxPoint x="670" y="357" as="targetPoint" />
          </mxGeometry>
        </mxCell>
        <mxCell id="EhaO9jc-MDTNK2BKhwBv-12" value="CMS&lt;br&gt;Manager" style="whiteSpace=wrap;html=1;aspect=fixed;dashed=1;" vertex="1" parent="1">
          <mxGeometry x="500" y="319" width="80" height="80" as="geometry" />
        </mxCell>
      </root>
    </mxGraphModel>
  </diagram>
</mxfile>
